PathFileType	4	(X/Y/Z)	C:\Users\Basilio\Documents\Thesis Gigler\squatting_fais\c3dfiles\019\SJ_pre4\markers_experimental.trc
DataRate	CameraRate	NumFrames	NumMarkers	Units	OrigDataRate	OrigDataStartFrame	OrigNumFrames
200.000000	200.000000	4	59	mm	200.000000	1144	1308
Frame#	Time	LBHD			RBHD			C7			T10			CLAV			LSHO			LUUPA			LMUPA			LDUPA			LLEP			LMEP			LRAD			LUL			LRFIN			RSHO			RUPA1			RMUPA			RDUPA			RLEP			RMEP			RRAD			RUL			RUFIN			LASI			USACR			LSACR			RSACR			LTHI1			LTHI2			LTHI3			LTHI4			LLFC			LTIB1			LTIB2			LTIB3			LTIB4			LLMAL			LMMAL			LHEE			LMT1			LMT2			LMT5			RTHI			RTHI2			RTHI3			RTHI4			RLFC			RTIB1			RTIB2			RTIB3			RTIB4			RLMAL			RMMAL			RHEE			RMT1			RMT2			RMT5			FHD			RASI			
		X1	Y1	Z1	X2	Y2	Z2	X3	Y3	Z3	X4	Y4	Z4	X5	Y5	Z5	X6	Y6	Z6	X7	Y7	Z7	X8	Y8	Z8	X9	Y9	Z9	X10	Y10	Z10	X11	Y11	Z11	X12	Y12	Z12	X13	Y13	Z13	X14	Y14	Z14	X15	Y15	Z15	X16	Y16	Z16	X17	Y17	Z17	X18	Y18	Z18	X19	Y19	Z19	X20	Y20	Z20	X21	Y21	Z21	X22	Y22	Z22	X23	Y23	Z23	X24	Y24	Z24	X25	Y25	Z25	X26	Y26	Z26	X27	Y27	Z27	X28	Y28	Z28	X29	Y29	Z29	X30	Y30	Z30	X31	Y31	Z31	X32	Y32	Z32	X33	Y33	Z33	X34	Y34	Z34	X35	Y35	Z35	X36	Y36	Z36	X37	Y37	Z37	X38	Y38	Z38	X39	Y39	Z39	X40	Y40	Z40	X41	Y41	Z41	X42	Y42	Z42	X43	Y43	Z43	X44	Y44	Z44	X45	Y45	Z45	X46	Y46	Z46	X47	Y47	Z47	X48	Y48	Z48	X49	Y49	Z49	X50	Y50	Z50	X51	Y51	Z51	X52	Y52	Z52	X53	Y53	Z53	X54	Y54	Z54	X55	Y55	Z55	X56	Y56	Z56	X57	Y57	Z57	X58	Y58	Z58	X59	Y59	Z59	

1145	5.72	-282.2890930175782	1643.519897460938	-1031.100708007813	-294.5872497558594	1635.372436523438	-892.2759399414065	-355.3244934082032	1467.95361328125	-964.8692626953127	-420.6756591796876	1175.548583984375	-970.864685058594	-220.1299133300782	1407.145263671875	-960.1716918945315	-274.5838317871094	1457.737915039063	-1116.6962890625	-297.7494201660157	1313.950073242188	-1223.555541992188	-295.7230834960938	1270.918579101563	-1198.0888671875	-314.2743530273438	1255.664672851563	-1253.417846679688	-355.4311218261719	1206.682861328125	-1309.311279296875	-417.4463806152345	1199.725830078125	-1284.5390625	-352.7977905273438	982.6272583007815	-1189.90087890625	-326.4243469238282	961.015563964844	-1247.270629882813	-310.3733215332032	968.9793090820315	-1153.921508789063	-287.2432556152344	1450.711303710938	-817.9306640625002	-383.2320556640626	1333.30517578125	-690.2393188476564	-350.4857177734376	1296.00341796875	-684.0966796875001	-397.2775268554689	1276.447631835938	-650.9383544921876	-406.5587463378907	1201.06005859375	-618.8291015625001	-465.2379760742189	1202.532348632813	-646.9146118164064	-373.2589111328126	986.0013427734377	-754.1129150390626	-349.7798461914063	963.0598754882815	-698.9256591796876	-321.8388977050782	958.1641235351565	-788.5147094726565	-287.4952087402344	960.3465576171877	-1079.98388671875	-440.6829528808595	1040.15283203125	-976.9590454101565	-447.7792053222657	1007.796630859375	-1004.633117675781	-448.0943298339845	1009.178649902344	-947.2099609375002	-350.9051818847657	713.7827148437501	-1185.8388671875	-301.2963256835938	644.7760009765626	-1199.453369140625	-256.3032836914063	653.9663696289064	-1185.935791015625	-318.3087463378907	585.6801757812501	-1193.33056640625	-307.3915100097657	490.4033813476564	-1195.5556640625	-259.4253845214844	347.6015319824219	-1192.162231445313	-320.7142944335938	315.3435058593751	-1246.24267578125	-282.5756530761719	306.7728271484376	-1227.383056640625	-285.5328979492188	222.0608825683594	-1206.957397460938	-363.1023559570313	99.33805847167972	-1248.926391601563	-335.8813781738282	94.03186798095705	-1169.261840820313	-416.5004272460939	46.88496398925782	-1198.153198242188	-196.8411102294922	57.14831161499025	-1207.149536132813	-202.4708862304688	58.06781005859376	-1248.854614257813	-248.2554321289063	35.01865005493165	-1298.417846679688	-342.5709228515626	780.7053222656252	-763.5745239257814	-296.0238037109376	735.6618041992189	-751.3996582031251	-267.4956054687501	740.4325561523439	-765.0476684570314	-307.9203186035157	653.2009277343751	-737.2524414062501	-312.4036254882813	489.1585083007814	-739.8914794921876	-268.5124511718751	303.1651916503907	-750.6522827148439	-343.0296630859376	235.1685180664063	-703.4908447265626	-301.2052001953126	227.7112579345704	-721.7159423828126	-301.0400695800782	180.2422027587891	-758.2858886718751	-376.4952087402344	99.68083953857425	-716.0137939453126	-335.4770812988282	98.19139099121097	-786.0237426757815	-405.2514953613282	41.53312301635743	-779.5000000000002	-209.9129333496094	71.18370056152345	-719.1149902343751	-224.8602600097657	78.74063110351564	-675.7891235351564	-276.9610900878907	49.24526977539064	-641.9177856445314	-157.3727111816407	1640.03515625	-880.1267700195315	nan	nan	nan	
1146	5.725000000000001	-282.3707885742188	1643.633666992188	-1030.79052734375	-295.3779296875001	1635.382446289063	-892.0474853515627	-355.8092956542969	1468.03662109375	-964.7723388671877	-420.7063903808595	1175.56005859375	-971.0415039062502	-220.5548706054688	1407.374755859375	-960.1270141601565	-275.1790161132813	1458.070922851563	-1116.585571289063	-298.0763854980469	1314.359741210938	-1223.64453125	-295.2513122558594	1271.3359375	-1198.959594726563	-314.2785339355469	1256.007690429688	-1253.54052734375	-355.4373779296876	1206.999755859375	-1309.520629882813	-417.4417419433595	1199.912719726563	-1284.911743164063	-352.0789489746094	982.8743286132815	-1190.048706054688	-325.9349060058594	961.4049072265627	-1247.449340820313	-309.7705993652344	969.1951904296877	-1154.0966796875	-287.9496459960938	1450.776611328125	-817.8652954101565	-383.7318115234376	1333.212524414063	-690.3244628906251	-350.9127197265626	1295.966674804688	-684.1043701171876	-397.6330566406251	1276.470336914063	-650.9937744140626	-407.0775451660157	1200.8828125	-619.0328979492189	-465.6086425781251	1202.256469726563	-647.1825561523439	-373.1246337890626	986.0692138671877	-754.4080200195314	-349.6527404785157	963.0472412109377	-699.1189575195314	-321.6986999511719	958.2978515625002	-788.7664184570315	-286.9612426757813	960.5699462890627	-1080.088500976563	-440.3064575195314	1040.045532226563	-977.231384277344	-447.3770446777345	1007.763549804688	-1004.931274414063	-447.5667114257814	1009.058044433594	-947.4888916015627	-350.7456665039063	713.9204711914064	-1185.8056640625	-301.2784423828126	644.7559814453126	-1199.45556640625	-256.3438720703126	653.9298095703126	-1186.107788085938	-318.4441833496094	585.6711425781251	-1193.287475585938	-307.7723083496094	490.4879760742189	-1195.57958984375	-259.8164062500001	347.6689453125001	-1192.241455078125	-320.8493041992188	315.3422546386719	-1246.3046875	-282.8779296875001	306.7780456542969	-1227.403076171875	-285.7554321289063	222.0439453125001	-1206.977905273438	-363.1251525878907	99.32857513427737	-1248.916625976563	-335.9191284179688	93.97015380859376	-1169.3251953125	-416.4856567382814	46.89511871337891	-1198.13330078125	-196.7413940429688	57.06414794921876	-1207.140258789063	-202.5111236572266	58.00965881347658	-1248.889526367188	-248.2748718261719	34.96631240844727	-1298.422973632813	-342.1130981445313	780.8154296875002	-763.8078002929689	-295.7496948242188	735.8040161132814	-751.6492919921876	-267.1634521484376	740.3555908203126	-765.1616821289064	-307.5485839843751	653.2218627929689	-737.4448852539064	-312.2451171875001	489.1852416992189	-740.0935058593751	-268.5588989257813	303.1836242675782	-750.9141235351564	-342.9551086425782	235.2218627929688	-703.6348266601564	-301.1091003417969	227.8063049316407	-721.8367309570314	-300.9871215820313	180.2388458251953	-758.4302978515626	-376.4625244140626	99.69747161865237	-716.1243286132814	-335.4534301757813	98.18221282958987	-786.1365966796877	-405.3725891113282	41.61969757080079	-779.4757080078127	-210.2693023681641	71.49705505371095	-719.3940429687501	-224.8679809570313	78.85767364501955	-675.9923706054689	-276.8307495117188	49.34317779541017	-642.0335693359376	-158.0670318603516	1640.357666015625	-879.681823730469	nan	nan	nan	
1147	5.73	-282.7471008300782	1643.858154296875	-1030.440185546875	-296.1030883789063	1635.285400390625	-891.816833496094	-356.2788391113282	1468.1494140625	-964.579040527344	-420.6119079589845	1175.565551757813	-971.1976318359377	-220.9128417968751	1407.600463867188	-959.9484863281252	-275.7140197753907	1458.353393554688	-1116.445678710938	-298.2094116210938	1314.739624023438	-1223.673706054688	-295.2526550292969	1271.649169921875	-1199.06494140625	-314.3877868652344	1256.394897460938	-1253.653198242188	-355.3309020996094	1207.333984375	-1309.751220703125	-417.3565673828126	1200.150512695313	-1285.214233398438	-351.5096435546876	983.228942871094	-1190.178588867188	-325.5447692871094	961.7070922851565	-1247.712646484375	-309.2319641113282	969.5432128906252	-1154.322387695313	-288.2979431152344	1450.816528320313	-817.6839599609377	-384.3847961425782	1332.98828125	-690.4526367187501	-351.3103332519532	1295.932983398438	-684.1335449218751	-398.1152648925782	1276.317138671875	-651.1122436523439	-407.5902404785157	1200.80908203125	-619.0932617187501	-466.0919799804689	1201.97412109375	-647.3634643554689	-373.0634765625001	986.1313476562502	-754.7477416992189	-349.4420776367188	963.0567016601565	-699.3245849609376	-321.5596618652344	958.2971191406252	-789.175720214844	-286.4236450195313	960.7778930664065	-1080.180297851563	-439.9731445312501	1040.005493164063	-977.4289550781252	-446.7436523437501	1007.887329101563	-1005.070251464844	-447.243621826172	1009.062438964844	-947.6690063476565	-350.5901489257813	714.0593261718751	-1185.7783203125	-301.3724060058594	644.7528076171876	-1199.5078125	-256.3909301757813	653.8444213867189	-1186.311889648438	-318.6277770996094	585.7411499023439	-1193.288940429688	-308.1347656250001	490.5549316406251	-1195.507446289063	-260.2095031738282	347.5258178710938	-1191.953002929688	-321.1687011718751	315.5070190429688	-1246.237426757813	-283.0478515625001	306.8971862792969	-1227.442260742188	-285.8612060546876	222.1217193603516	-1207.019775390625	-363.1813659667969	99.28511047363284	-1248.912109375	-336.0291137695313	93.9213333129883	-1169.394409179688	-416.5142517089845	46.92910766601563	-1198.170776367188	-196.7865600585938	57.09353256225587	-1207.26025390625	-202.4828338623047	57.94723892211915	-1248.969360351563	-248.222152709961	34.93151473999024	-1298.502319335938	-341.7226867675782	780.9932250976565	-764.0974121093751	-295.3937683105469	735.8602905273439	-751.9000854492189	-266.7987060546876	740.3622436523439	-765.4039306640626	-307.2434082031251	653.2122192382814	-737.6642456054689	-312.1238403320313	489.2347106933595	-740.3447265625001	-268.5181884765626	303.2358398437501	-751.1638793945314	-342.9062500000001	235.2828979492188	-703.8257446289064	-301.0140075683594	227.9065551757813	-722.0215454101564	-300.8915710449219	180.2906188964844	-758.5597534179689	-376.4524536132813	99.77384948730472	-716.2620239257814	-335.4336242675782	98.15742492675784	-786.2618408203127	-405.4295959472657	41.69465255737305	-779.5080566406252	-209.8101959228516	71.04953765869142	-719.5216674804689	-224.6384277343751	78.81154632568361	-676.1567382812501	-276.7958984375001	49.41274642944337	-642.1845092773439	-158.8743743896485	1640.448608398438	-878.9844360351565	nan	nan	nan	
1148	5.735	-283.3762512207032	1644.152954101563	-1030.100708007813	-296.9925231933594	1635.4326171875	-891.498962402344	-356.6469116210938	1468.255126953125	-964.4406738281252	-420.5977783203126	1175.517578125	-971.2529296875002	-221.3671569824219	1407.85986328125	-959.8447265625002	-276.2305603027344	1458.579956054688	-1116.221069335938	-298.4212951660157	1315.1298828125	-1223.783935546875	-295.4094848632813	1271.992309570313	-1199.102661132813	-314.4320678710938	1256.740966796875	-1253.767578125	-355.2334899902344	1207.730712890625	-1309.980712890625	-417.2272949218751	1200.418334960938	-1285.524780273438	-350.9510192871094	983.535827636719	-1190.343505859375	-325.0334777832032	962.0386352539065	-1247.884887695313	-308.7890319824219	969.8338012695315	-1154.469360351563	-288.5993957519532	1450.940673828125	-817.4907226562502	-384.8298339843751	1332.832397460938	-690.4673461914064	-351.7973327636719	1295.896850585938	-684.0684814453126	-398.7308044433595	1276.119140625	-651.2088623046876	-408.0503234863282	1200.582763671875	-619.0066528320314	-466.4256286621095	1201.7587890625	-647.5581665039064	-372.8686218261719	986.1033325195315	-754.9154052734376	-349.4166259765626	963.0764160156252	-699.5332031250001	-321.3196105957032	958.4090576171877	-789.3347778320315	-285.8974914550782	960.9842529296877	-1080.296508789063	-439.6240844726564	1040.045166015625	-977.6086425781252	-446.4182739257814	1007.922485351563	-1005.273620605469	-446.8875122070314	1009.061218261719	-947.9063110351565	-350.4671020507813	714.2036132812501	-1185.756103515625	-301.4574890136719	644.7200317382814	-1199.546997070313	-256.4437561035157	653.8041992187501	-1186.418334960938	-318.8564758300782	585.7784423828126	-1193.24609375	-308.6622314453126	490.6585693359376	-1195.494018554688	-260.7065124511719	347.7637634277344	-1191.982177734375	-321.3800048828126	315.5045776367188	-1246.208129882813	-283.4034423828126	306.9378356933594	-1227.455932617188	-285.5606384277344	221.8574676513672	-1207.098876953125	-363.2286682128907	99.23402404785159	-1248.938598632813	-336.1250000000001	93.93637847900392	-1169.447875976563	-416.5210266113282	46.92857360839844	-1198.224731445313	-196.8065338134766	57.12759399414064	-1207.2919921875	-202.4621582031251	57.94588851928712	-1248.979736328125	-248.1970825195313	34.89923095703126	-1298.553466796875	-341.2772521972657	781.1694946289065	-764.3582763671876	-294.9650573730469	735.7864990234376	-752.1622314453126	-266.5023498535157	740.2893676757814	-765.6960449218751	-306.8279113769532	653.2233886718751	-737.8466186523439	-312.0869445800782	489.3735656738282	-740.6098632812501	-268.4808044433594	303.2442626953126	-751.4045410156251	-342.8173522949219	235.3171691894532	-703.9794921875001	-300.8298034667969	227.9036712646485	-722.1654052734376	-300.9448242187501	180.2969207763672	-758.6655883789064	-376.3516235351563	99.88893890380862	-716.3639526367189	-335.4187927246094	98.1457443237305	-786.3486328125002	-405.5010375976564	41.79466247558594	-779.499206542969	-210.1019287109376	71.2970428466797	-719.7730102539064	-224.6915588378907	78.80117034912111	-676.2060546875001	-276.6741027832032	49.44126892089845	-642.2679443359376	-159.8305816650391	1640.828369140625	-878.4021606445315	nan	nan	nan	
